<svg width="46.000000" height="50.000000" viewBox="0 0 46 50" fill="none" xmlns="http://www.w3.org/2000/svg" xmlns:xlink="http://www.w3.org/1999/xlink">
	<desc>
			Created with Pixso.
	</desc>
	<defs>
		<linearGradient id="paint_linear_3_5591_0" x1="31.979527" y1="8.021762" x2="22.175146" y2="16.043531" gradientUnits="userSpaceOnUse">
			<stop stop-color="#FFFFFF"/>
			<stop offset="1.000000" stop-color="#F0F0F0"/>
		</linearGradient>
	</defs>
	<rect id="Rectangle 2639" x="21.729492" rx="2.000000" width="24.956610" height="34.760994" transform="rotate(15 21.729492 0.000000)" fill="url(#paint_linear_3_5591_0)" fill-opacity="1.000000"/>
	<rect id="Rectangle 2639" x="21.729492" rx="2.000000" width="24.956610" height="34.760994" transform="rotate(15 21.729492 0.000000)" stroke="#E4E4E4" stroke-opacity="1.000000" stroke-width="1.000000"/>
	<path id="Union" d="M28.5469 24.5056L28.5469 24.5057C28.5527 24.5032 28.5586 24.5005 28.5654 24.4979C31.2061 23.3899 34.0342 22.2666 34.6602 20.1653C35.1377 18.1485 33.8359 17.0848 32.6514 16.7675C31.958 16.5817 31.125 16.7818 30.4199 17.302C30.0059 16.4818 29.3174 15.8742 28.624 15.6884C27.4395 15.371 25.8994 15.673 25.3037 17.658C24.7959 19.7896 26.7988 22.2063 28.5312 24.4851C28.5361 24.492 28.541 24.4989 28.5469 24.5057L28.5469 24.5056Z" clip-rule="evenodd" fill="#FF4545" fill-opacity="1.000000" fill-rule="evenodd"/>
	<rect id="Rectangle 2640" x="-0.193359" y="15.625061" rx="2.000000" width="24.956610" height="34.760994" transform="rotate(-15 -0.193359 15.625061)" fill="#FFFFFF" fill-opacity="1.000000"/>
	<rect id="Rectangle 2640" x="-0.193359" y="15.625061" rx="2.000000" width="24.956610" height="34.760994" transform="rotate(-15 -0.193359 15.625061)" stroke="#E4E4E4" stroke-opacity="1.000000" stroke-width="1.000000"/>
	<path id="Union" d="M15.1201 26.4952C14.3525 25.9919 13.4521 25.8097 12.7588 25.9955C11.5742 26.3129 10.3916 27.3448 10.8682 29.3616C11.4941 31.4624 14.4395 32.5541 17.0801 33.6617C17.0869 33.6646 17.0938 33.6675 17.1006 33.6703L17.1006 33.6701L17.1006 33.6703C17.1064 33.6624 17.1123 33.6545 17.1182 33.6466C18.8496 31.3689 20.7324 28.985 20.2246 26.8543C19.6299 24.8693 17.9707 24.5991 16.7861 24.9165C16.0928 25.1022 15.4717 25.6918 15.1201 26.4952Z" clip-rule="evenodd" fill="#FF4545" fill-opacity="1.000000" fill-rule="evenodd"/>
</svg>
